<svg width="30" height="26" viewBox="0 0 30 26" fill="none" xmlns="http://www.w3.org/2000/svg">
<g opacity="0.8" filter="url(#filter0_i_454_968)">
<path fill-rule="evenodd" clip-rule="evenodd" d="M19.6156 4.80814H25.8932C27.8421 4.81016 29.4214 6.38954 29.4233 8.33832V22.1195C29.4213 24.0683 27.842 25.6477 25.8932 25.6497H3.53018C1.58134 25.6477 0.00201137 24.0683 0 22.1195V8.33832C0.00201137 6.38948 1.58134 4.81016 3.53018 4.80814H9.80776V3.05377C9.80776 1.58381 10.8014 0.517212 12.1708 0.517212H17.033C18.457 0.517212 19.6156 1.65496 19.6156 3.05377V4.80814ZM12.1709 1.74323C11.385 1.74323 11.0338 2.40157 11.0338 3.05377V4.80814H18.3896V3.05377C18.3896 2.33106 17.7809 1.74323 17.0331 1.74323H12.1709ZM25.8932 24.4237C27.166 24.4223 28.1971 23.3904 28.1974 22.1177H28.1974V8.33832C28.1961 7.06628 27.1652 6.03548 25.8932 6.0341H3.53018C2.25813 6.03548 1.22734 7.06628 1.22596 8.33832V22.1195C1.22734 23.3916 2.25813 24.4224 3.53018 24.4237H25.8932ZM17.7767 12.164H20.8416C21.1801 12.164 21.4545 12.4385 21.4546 12.777V17.6809C21.4546 18.0194 21.1801 18.2939 20.8416 18.2939H17.7767V21.3588C17.7767 21.6974 17.5022 21.9718 17.1636 21.9718H12.2598C11.9212 21.9718 11.6468 21.6974 11.6468 21.3588V18.2939H8.58184C8.2433 18.2939 7.96883 18.0194 7.96883 17.6809V12.777C7.96883 12.4385 8.2433 12.164 8.58184 12.164H11.6468V9.09908C11.6468 8.76054 11.9212 8.48607 12.2598 8.48607H17.1636C17.5022 8.48607 17.7767 8.76054 17.7767 9.09908V12.164ZM17.1636 17.0679H20.2286V13.39H17.1636C16.8251 13.39 16.5506 13.1155 16.5506 12.7769V9.71203H12.8727V12.7769C12.8727 13.1155 12.5982 13.39 12.2597 13.39H9.19479V17.0679H12.2597C12.5982 17.0679 12.8727 17.3423 12.8727 17.6809V20.7458H16.5506V17.6809C16.5506 17.3423 16.8251 17.0679 17.1636 17.0679Z" fill="white"/>
</g>
<defs>
<filter id="filter0_i_454_968" x="0" y="0.517212" width="29.4233" height="29.1324" filterUnits="userSpaceOnUse" color-interpolation-filters="sRGB">
<feFlood flood-opacity="0" result="BackgroundImageFix"/>
<feBlend mode="normal" in="SourceGraphic" in2="BackgroundImageFix" result="shape"/>
<feColorMatrix in="SourceAlpha" type="matrix" values="0 0 0 0 0 0 0 0 0 0 0 0 0 0 0 0 0 0 127 0" result="hardAlpha"/>
<feOffset dy="4"/>
<feGaussianBlur stdDeviation="2"/>
<feComposite in2="hardAlpha" operator="arithmetic" k2="-1" k3="1"/>
<feColorMatrix type="matrix" values="0 0 0 0 0.237495 0 0 0 0 0.0886458 0 0 0 0 0.4625 0 0 0 0.42 0"/>
<feBlend mode="normal" in2="shape" result="effect1_innerShadow_454_968"/>
</filter>
</defs>
</svg>
