<svg width="33" height="34" viewBox="0 0 33 34" fill="none" xmlns="http://www.w3.org/2000/svg">
<g opacity="0.8" filter="url(#filter0_i_454_977)">
<path fill-rule="evenodd" clip-rule="evenodd" d="M16.5 32.4085C20.5048 32.4085 24.1419 30.7867 26.8264 28.1457L20.6153 21.7464V27.697C20.6153 28.9007 19.668 29.8766 18.4998 29.8766H14.5353C13.3671 29.8766 12.4198 28.9007 12.4198 27.697V15.3294C12.4198 14.6195 12.4884 14.0129 12.6071 13.4955L5.68208 6.36066C3.11881 9.12651 1.54468 12.8739 1.54468 17C1.54468 25.5099 8.24041 32.4085 16.5 32.4085ZM13.2254 11.9841L6.75173 5.31432C9.3696 2.99399 12.7758 1.59149 16.5 1.59149C24.7596 1.59149 31.4553 8.49012 31.4553 17C31.4553 20.837 30.0941 24.3465 27.842 27.0437L20.6153 19.598V15.3294C20.6153 13.263 20.0344 12.0726 19.3272 11.4074C19.0198 11.1184 18.708 10.9478 18.4509 10.8477V7.92839L18.4509 7.92419L18.4509 7.91999V6.24636C18.465 6.19224 18.4726 6.13532 18.4726 6.0766C18.4726 6.01787 18.465 5.96095 18.4509 5.90683V3.98596C18.4509 3.62639 18.168 3.3349 17.819 3.3349H15.2161C14.8671 3.3349 14.5842 3.62639 14.5842 3.98596V7.87698C14.5831 7.89257 14.5826 7.90831 14.5826 7.92419C14.5826 7.94007 14.5831 7.95581 14.5842 7.9714V10.8477C14.3271 10.9478 14.0153 11.1184 13.7079 11.4074C13.5376 11.5676 13.3747 11.7582 13.2254 11.9841ZM17.1871 5.42553V4.63703H15.848V5.42553H17.1871ZM15.848 6.72766V7.27313H17.1871V6.72766H15.848ZM17.1871 8.57526H15.848V11.3552C15.848 11.6998 15.5876 11.984 15.2551 12.005C15.2516 12.0054 15.2422 12.0065 15.2276 12.0091C15.1969 12.0144 15.1446 12.0257 15.0777 12.0486C14.9447 12.0943 14.7552 12.1856 14.5599 12.3692C14.428 12.4932 14.2804 12.6723 14.1446 12.9312L19.3515 18.2959V15.3294C19.3515 13.5185 18.8501 12.7218 18.4752 12.3692C18.2799 12.1856 18.0904 12.0943 17.9574 12.0486C17.8906 12.0257 17.8382 12.0144 17.8075 12.0091C17.793 12.0065 17.7835 12.0054 17.78 12.005C17.4475 11.984 17.1871 11.6998 17.1871 11.3552V8.57526ZM13.7109 14.6328C13.6933 14.8465 13.6837 15.0782 13.6837 15.3294V27.697C13.6837 28.1815 14.0651 28.5745 14.5353 28.5745H18.4998C18.9701 28.5745 19.3515 28.1815 19.3515 27.697V20.4443L13.7109 14.6328ZM16.5 34C25.6127 34 33 26.3888 33 17C33 7.61116 25.6127 0 16.5 0C7.3873 0 0 7.61116 0 17C0 26.3888 7.3873 34 16.5 34Z" fill="white"/>
</g>
<defs>
<filter id="filter0_i_454_977" x="0" y="0" width="33" height="38" filterUnits="userSpaceOnUse" color-interpolation-filters="sRGB">
<feFlood flood-opacity="0" result="BackgroundImageFix"/>
<feBlend mode="normal" in="SourceGraphic" in2="BackgroundImageFix" result="shape"/>
<feColorMatrix in="SourceAlpha" type="matrix" values="0 0 0 0 0 0 0 0 0 0 0 0 0 0 0 0 0 0 127 0" result="hardAlpha"/>
<feOffset dy="4"/>
<feGaussianBlur stdDeviation="2"/>
<feComposite in2="hardAlpha" operator="arithmetic" k2="-1" k3="1"/>
<feColorMatrix type="matrix" values="0 0 0 0 0.237495 0 0 0 0 0.0886458 0 0 0 0 0.4625 0 0 0 0.42 0"/>
<feBlend mode="normal" in2="shape" result="effect1_innerShadow_454_977"/>
</filter>
</defs>
</svg>
