<svg width="64" height="64" viewBox="0 0 64 64" fill="none" xmlns="http://www.w3.org/2000/svg">
<rect width="64" height="64" rx="32" fill="#1871F7"/>
<path d="M36.0079 19.2C36.0079 20.0487 35.6707 20.8627 35.0706 21.4628C34.4705 22.0629 33.6566 22.4 32.8079 22.4C31.9592 22.4 31.1452 22.0629 30.5451 21.4628C29.945 20.8627 29.6078 20.0487 29.6078 19.2C29.6078 18.3513 29.945 17.5374 30.5451 16.9373C31.1452 16.3371 31.9592 16 32.8079 16C33.6566 16 34.4705 16.3371 35.0706 16.9373C35.6707 17.5374 36.0079 18.3513 36.0079 19.2Z" fill="#EFEAFE"/>
<path fill-rule="evenodd" clip-rule="evenodd" d="M30.1287 34.7758C29.8896 34.7334 29.6634 34.6371 29.4671 34.4942L25.0671 31.2942C24.7376 31.0547 24.5119 30.6986 24.4359 30.2984C24.36 29.8982 24.4395 29.4842 24.6583 29.1406L24.6591 29.139L24.6615 29.1358L24.6695 29.1238L24.6951 29.083C24.8408 28.8568 24.9899 28.6328 25.1423 28.411C25.4343 27.9822 25.8415 27.4046 26.2919 26.8214C26.7351 26.2478 27.2543 25.6246 27.7703 25.131C28.0271 24.8854 28.3223 24.6342 28.6399 24.435C28.9239 24.2558 29.4095 23.9998 30.0079 23.9998H31.6079C31.946 23.9999 32.2753 24.1072 32.5487 24.3062H32.5503L32.5519 24.3078L32.5567 24.311L32.5703 24.3214L32.6167 24.3558L32.7783 24.479C32.9143 24.5838 33.1071 24.7366 33.3415 24.9302C33.9656 25.4484 34.5654 25.9951 35.1391 26.5686C36.4991 27.9286 38.1751 29.9102 39.0935 32.2054C39.6255 33.535 39.6383 34.7814 39.2119 35.8798C38.8015 36.935 38.0503 37.6838 37.3487 38.1934C36.6447 38.7062 35.9031 39.0414 35.3615 39.2462C35.1359 39.3318 34.9375 39.3974 34.7775 39.4462L33.6079 45.5999V46.3999C33.6079 46.8242 33.4393 47.2312 33.1393 47.5313C32.8392 47.8313 32.4322 47.9999 32.0079 47.9999C31.5835 47.9999 31.1766 47.8313 30.8765 47.5313C30.5765 47.2312 30.4079 46.8242 30.4079 46.3999V45.5999C30.4079 40.9159 30.4055 37.8742 30.1287 34.7758ZM29.6023 30.6358C29.4761 29.8608 29.339 29.0877 29.1911 28.3166C29.0695 28.4648 28.9471 28.6187 28.8239 28.7782C28.6031 29.0638 28.3919 29.3502 28.2023 29.6174L29.6023 30.6358Z" fill="#EFEAFE"/>
</svg>
