<svg width="17" height="19" viewBox="0 0 17 19" fill="none" xmlns="http://www.w3.org/2000/svg">
<path d="M12.322 4.59381C11.8007 4.59381 11.3109 4.66731 10.8525 4.81431C10.3941 4.95315 9.9807 5.09607 9.61221 5.24307C9.24372 5.39007 8.92017 5.46357 8.64155 5.46357C8.35395 5.46357 8.0304 5.39415 7.6709 5.25532C7.32038 5.11648 6.9429 4.98173 6.53846 4.85106C6.13402 4.71223 5.70262 4.64281 5.24425 4.64281C4.38144 4.64281 3.5456 4.85923 2.73672 5.29207C1.93682 5.71674 1.28073 6.34967 0.768438 7.19084C0.256146 8.02386 0 9.05695 0 10.2901C0 11.4417 0.211208 12.585 0.633624 13.7202C1.06503 14.8472 1.58181 15.8027 2.18398 16.5867C2.70526 17.2482 3.21306 17.8158 3.70738 18.2895C4.20169 18.7632 4.7769 19 5.43299 19C5.86439 19 6.23738 18.9347 6.55194 18.804C6.8755 18.6733 7.21253 18.5427 7.56305 18.412C7.92255 18.2813 8.36743 18.216 8.8977 18.216C9.44594 18.216 9.88184 18.2813 10.2054 18.412C10.5289 18.5345 10.8435 18.6611 11.1491 18.7917C11.4547 18.9142 11.8456 18.9755 12.322 18.9755C13.032 18.9755 13.6386 18.7305 14.142 18.2405C14.6542 17.7505 15.1306 17.2156 15.571 16.6357C16.0743 15.966 16.4338 15.3576 16.6495 14.8104C16.8742 14.2633 16.991 13.9734 17 13.9407C16.982 13.9325 16.8292 13.859 16.5416 13.7202C16.263 13.5813 15.9395 13.3649 15.571 13.0709C15.2115 12.7688 14.8924 12.3727 14.6138 11.8827C14.3442 11.3926 14.2094 10.7965 14.2094 10.0941C14.2094 9.48162 14.3172 8.95487 14.5329 8.51386C14.7486 8.06469 15.0003 7.69718 15.2879 7.41135C15.5755 7.11734 15.8361 6.89684 16.0698 6.74984C16.3035 6.59467 16.4338 6.50484 16.4607 6.48034C15.9934 5.86783 15.4721 5.4309 14.8969 5.16957C14.3307 4.90006 13.8094 4.73673 13.3331 4.67956C12.8567 4.62239 12.5197 4.59381 12.322 4.59381ZM11.5805 3.03804C11.904 2.6787 12.1692 2.27036 12.3759 1.81302C12.5826 1.34752 12.686 0.869761 12.686 0.379755C12.686 0.232753 12.6725 0.106168 12.6455 0C12.1242 0.0163335 11.576 0.159252 11.0008 0.428756C10.4256 0.698259 9.94925 1.03718 9.57177 1.44552C9.27518 1.74769 9.01005 2.13153 8.77637 2.59703C8.54269 3.05437 8.42585 3.52805 8.42585 4.01805C8.42585 4.09155 8.43035 4.16097 8.43933 4.22631C8.44832 4.29164 8.45731 4.33656 8.4663 4.36106C8.55617 4.37739 8.65054 4.38556 8.7494 4.38556C9.22575 4.38556 9.72905 4.25897 10.2593 4.0058C10.7896 3.74447 11.23 3.42188 11.5805 3.03804Z" fill="white"/>
</svg>
