<svg width="13" height="10" viewBox="0 0 13 10" fill="none" xmlns="http://www.w3.org/2000/svg">
<path d="M0.585999 4.99991L5.293 9.70691C5.38584 9.79975 5.49607 9.8734 5.61737 9.92365C5.73868 9.97389 5.8687 9.99976 6 9.99976C6.1313 9.99976 6.26132 9.97389 6.38262 9.92365C6.50393 9.8734 6.61415 9.79975 6.707 9.70691C6.79984 9.61406 6.87349 9.50384 6.92374 9.38253C6.97399 9.26122 6.99985 9.13121 6.99985 8.99991C6.99985 8.8686 6.97399 8.73859 6.92374 8.61728C6.87349 8.49597 6.79984 8.38575 6.707 8.29291L4.414 5.99991L12 5.99991C12.2652 5.99991 12.5196 5.89455 12.7071 5.70701C12.8946 5.51948 13 5.26512 13 4.99991C13 4.73469 12.8946 4.48034 12.7071 4.2928C12.5196 4.10526 12.2652 3.99991 12 3.99991L4.414 3.99991L6.707 1.70691C6.80018 1.61425 6.87413 1.50409 6.92459 1.38276C6.97506 1.26143 7.00103 1.13131 7.00103 0.999907C7.00103 0.868499 6.97506 0.738387 6.92459 0.617054C6.87413 0.495721 6.80018 0.385559 6.707 0.292906C6.51947 0.105434 6.26516 0.000120231 6 0.000120228C5.73483 0.000120224 5.48053 0.105434 5.293 0.292906L0.585999 4.99991Z" fill="#EFEAFE"/>
</svg>
