<svg width="375" height="96" viewBox="0 0 375 96" fill="none" xmlns="http://www.w3.org/2000/svg">
<g opacity="0.2" filter="url(#filter0_b_30_92)">
<path d="M-8 1C-8 1 68.0769 24.4284 119 30.3182C145.339 33.3646 160.554 34.7159 187 34.7159C213.446 34.7159 227.661 33.3646 254 30.3182C304.923 24.4284 382 1 382 1V96H-8V1Z" fill="url(#paint0_linear_30_92)"/>
<path d="M-8 1C-8 1 68.0769 24.4284 119 30.3182C145.339 33.3646 160.554 34.7159 187 34.7159C213.446 34.7159 227.661 33.3646 254 30.3182C304.923 24.4284 382 1 382 1V96H-8V1Z" fill="#4D28B8"/>
<path d="M-8 1C-8 1 68.0769 24.4284 119 30.3182C145.339 33.3646 160.554 34.7159 187 34.7159C213.446 34.7159 227.661 33.3646 254 30.3182C304.923 24.4284 382 1 382 1V96H-8V1Z" fill="url(#paint1_radial_30_92)" fill-opacity="0.6"/>
<path d="M-8 1L-7.92642 0.761073L-8.25 0.661425V1V96V96.25H-8H382H382.25V96V1V0.662716L381.927 0.760806L382 1C381.927 0.760806 381.927 0.760891 381.926 0.761065L381.924 0.76186L381.913 0.765044L381.871 0.777744L381.705 0.828062C381.558 0.872525 381.338 0.938617 381.05 1.02509C380.473 1.19803 379.621 1.45248 378.518 1.77844C376.311 2.43036 373.102 3.36832 369.092 4.5123C361.072 6.80029 349.849 9.9123 337.034 13.2083C311.401 19.8011 279.415 27.127 253.971 30.0698C227.637 33.1157 213.432 34.4659 187 34.4659C160.567 34.4659 145.362 33.1156 119.029 30.0698C93.5853 27.127 61.8491 19.8012 36.4667 13.2084C23.777 9.91247 12.6783 6.80049 4.75202 4.51252C0.788931 3.36855 -2.38096 2.4306 -4.55995 1.77868C-5.64945 1.45272 -6.49121 1.19828 -7.06053 1.02534C-7.34519 0.938874 -7.56173 0.872785 -7.70708 0.828323L-7.87131 0.778008L-7.91265 0.765309L-7.923 0.762126L-7.92558 0.761332C-7.92614 0.761158 -7.92642 0.761073 -8 1Z" stroke="#5633C3" stroke-width="0.5"/>
</g>
<defs>
<filter id="filter0_b_30_92" x="-58.5" y="-49.6771" width="491" height="196.177" filterUnits="userSpaceOnUse" color-interpolation-filters="sRGB">
<feFlood flood-opacity="0" result="BackgroundImageFix"/>
<feGaussianBlur in="BackgroundImageFix" stdDeviation="25"/>
<feComposite in2="SourceAlpha" operator="in" result="effect1_backgroundBlur_30_92"/>
<feBlend mode="normal" in="SourceGraphic" in2="effect1_backgroundBlur_30_92" result="shape"/>
</filter>
<linearGradient id="paint0_linear_30_92" x1="382" y1="-8.98188" x2="348.393" y2="167.231" gradientUnits="userSpaceOnUse">
<stop stop-color="#7041EE"/>
<stop offset="0.527788" stop-color="#8D41EE"/>
<stop offset="1" stop-color="#D641EE"/>
</linearGradient>
<radialGradient id="paint1_radial_30_92" cx="0" cy="0" r="1" gradientUnits="userSpaceOnUse" gradientTransform="translate(97.7628 -19.6522) rotate(114.288) scale(176.777 1022.2)">
<stop stop-color="#52B6FF"/>
<stop offset="1" stop-color="#8F41EE" stop-opacity="0"/>
</radialGradient>
</defs>
</svg>
