<svg width="19" height="14" viewBox="0 0 19 14" fill="none" xmlns="http://www.w3.org/2000/svg">
<path fill-rule="evenodd" clip-rule="evenodd" d="M1.42503 0C1.0471 0 0.684643 0.158035 0.417403 0.43934C0.150164 0.720644 3.05176e-05 1.10218 3.05176e-05 1.5V3.5H19V1.5C19 1.10218 18.8499 0.720644 18.5827 0.43934C18.3154 0.158035 17.953 0 17.575 0H1.42503ZM19 6.5H3.05176e-05V12.5C3.05176e-05 12.8978 0.150164 13.2794 0.417403 13.5607C0.684643 13.842 1.0471 14 1.42503 14H17.575C17.953 14 18.3154 13.842 18.5827 13.5607C18.8499 13.2794 19 12.8978 19 12.5V6.5Z" fill="white"/>
</svg>
