<svg width="33" height="33" viewBox="0 0 33 33" fill="none" xmlns="http://www.w3.org/2000/svg">
<g opacity="0.8" filter="url(#filter0_i_454_938)">
<path fill-rule="evenodd" clip-rule="evenodd" d="M27.5556 26.2813C29.7392 23.7052 31.059 20.3533 31.059 16.6885C31.059 8.56072 24.567 1.97182 16.5587 1.97182C12.9479 1.97182 9.64527 3.31136 7.10704 5.52752L14.5202 13.0513L16.491 11.0511C17.5045 10.0225 18.9524 9.69571 20.2625 10.0644L20.6288 9.69263C21.385 8.92519 22.6245 8.93908 23.3976 9.72365C24.1706 10.5082 24.1843 11.7663 23.4281 12.5337L23.0618 12.9055C23.4251 14.2352 23.1031 15.7047 22.0896 16.7333L20.1188 18.7335L27.5556 26.2813ZM26.571 27.3339C23.9681 29.8563 20.4417 31.4053 16.5587 31.4053C8.55044 31.4053 2.05843 24.8164 2.05843 16.6885C2.05843 12.7477 3.58466 9.16856 6.06994 6.52688L13.5093 14.0773L8.27645 19.3883L7.8099 18.9148C7.55223 18.6532 7.13904 18.6486 6.88699 18.9044C6.63494 19.1602 6.6395 19.5796 6.89717 19.8411L7.36373 20.3146L12.9623 25.9968L13.4289 26.4703C13.6866 26.7318 14.0998 26.7365 14.3518 26.4807C14.6039 26.2248 14.5993 25.8055 14.3416 25.544L13.8751 25.0704L19.1079 19.7595L26.571 27.3339ZM18.1748 18.8124L12.942 24.1234L9.20955 20.3353L14.4424 15.0243L18.1748 18.8124ZM19.1857 17.7865L21.1565 15.7863C21.831 15.1017 22.0478 14.1235 21.8045 13.2332L21.6022 12.4928L22.495 11.5867C22.7471 11.3309 22.7425 10.9115 22.4848 10.65C22.2272 10.3885 21.814 10.3838 21.5619 10.6397L20.6691 11.5458L19.9397 11.3405C19.0624 11.0936 18.0986 11.3136 17.4241 11.9982L15.4533 13.9984L19.1857 17.7865ZM16.5587 32.9253C25.3942 32.9253 32.5567 25.6559 32.5567 16.6885C32.5567 7.72123 25.3942 0.451782 16.5587 0.451782C7.72329 0.451782 0.560745 7.72123 0.560745 16.6885C0.560745 25.6559 7.72329 32.9253 16.5587 32.9253Z" fill="white"/>
</g>
<defs>
<filter id="filter0_i_454_938" x="0.560745" y="0.451782" width="31.996" height="36.4735" filterUnits="userSpaceOnUse" color-interpolation-filters="sRGB">
<feFlood flood-opacity="0" result="BackgroundImageFix"/>
<feBlend mode="normal" in="SourceGraphic" in2="BackgroundImageFix" result="shape"/>
<feColorMatrix in="SourceAlpha" type="matrix" values="0 0 0 0 0 0 0 0 0 0 0 0 0 0 0 0 0 0 127 0" result="hardAlpha"/>
<feOffset dy="4"/>
<feGaussianBlur stdDeviation="2"/>
<feComposite in2="hardAlpha" operator="arithmetic" k2="-1" k3="1"/>
<feColorMatrix type="matrix" values="0 0 0 0 0.237495 0 0 0 0 0.0886458 0 0 0 0 0.4625 0 0 0 0.42 0"/>
<feBlend mode="normal" in2="shape" result="effect1_innerShadow_454_938"/>
</filter>
</defs>
</svg>
