<svg width="25" height="27" viewBox="0 0 25 27" fill="none" xmlns="http://www.w3.org/2000/svg">
<g opacity="0.8" filter="url(#filter0_i_454_944)">
<path d="M7.75328 25.7252H4.06352C3.6013 25.7252 3.32455 25.3089 3.29005 24.8976L1.80816 7.21418H13.362L12.7981 13.9433C12.7687 14.294 13.0281 14.6024 13.3776 14.6319C13.7263 14.6608 14.0341 14.4009 14.0635 14.0502L14.6381 7.19287C14.9097 7.12056 15.1097 6.87214 15.1097 6.57684V3.60709C15.1097 3.25506 14.8255 2.96975 14.4748 2.96975H10.6281V0.637345C10.6281 0.285318 10.3439 0 9.99319 0H5.11684C4.76615 0 4.48192 0.285318 4.48192 0.637345V2.96975H0.634913C0.28423 2.96975 0 3.25506 0 3.60709V6.57691C0 6.89409 0.230826 7.15718 0.533116 7.20611L2.02474 25.0046C2.12012 26.1421 2.99658 27 4.06352 27H7.75321C8.1039 27 8.38812 26.7147 8.38812 26.3627C8.38812 26.0106 8.10389 25.7252 7.75328 25.7252ZM5.75175 1.27469H9.3582V2.96975H5.75175V1.27469ZM1.26983 4.24444H13.8398V5.93956H1.26983V4.24444ZM23.729 11.6515L23.8506 9.08608C23.8572 8.91293 23.7933 8.74453 23.6737 8.61968C23.5539 8.49476 23.3888 8.42423 23.2162 8.42423H20.3819C20.0312 8.42423 19.747 8.70955 19.747 9.06158V10.6664C18.49 13.4918 15.9606 15.6065 12.9562 16.3358C9.70388 17.1252 8.43645 16.6577 7.00091 15.9111C5.88939 15.3331 5.29158 15.9312 5.13476 16.1283C4.50711 16.9173 4.78252 18.4941 5.74879 19.6433C5.97496 19.9123 6.37559 19.9462 6.64352 19.7193C6.91146 19.4923 6.94539 19.0902 6.71922 18.8212C6.03267 18.0046 6.00205 17.1302 6.11513 16.9405C6.15231 16.9417 6.2479 16.955 6.41679 17.0428C7.98855 17.8603 9.58797 18.4647 13.2546 17.5747C16.1939 16.8613 18.7297 14.9708 20.2741 12.401C20.3091 12.407 20.3452 12.4101 20.3819 12.4101H20.6808C20.0981 15.8786 17.7646 18.7779 14.4587 20.077C11.3428 21.3012 10.0239 21.0104 8.501 20.4659C7.3221 20.0446 6.81015 20.7182 6.68141 20.9347C6.16593 21.8017 6.65149 23.3266 7.76386 24.3338C9.66204 26.053 12.1168 26.9998 14.6759 26.9998C20.3686 26.9998 25 22.3506 25 16.636C25 14.8906 24.5612 13.1722 23.729 11.6515ZM21.0168 10.8148C21.017 10.8052 21.017 10.7957 21.0168 10.7862V9.69899H22.5564L22.478 11.1356H21.4125C21.4074 11.1356 21.4023 11.1356 21.3973 11.1356H21.0169V10.8148H21.0168ZM14.6759 25.7252C12.4316 25.7252 10.279 24.895 8.61444 23.3875C7.82418 22.6719 7.67582 21.8098 7.76224 21.6064C7.79928 21.6025 7.89571 21.6027 8.0749 21.6669C9.74268 22.2632 11.4089 22.6445 14.9215 21.2642C16.8375 20.5113 18.5144 19.243 19.771 17.5966C20.9313 16.0764 21.6841 14.2939 21.9662 12.4103H22.6936C23.3728 13.7071 23.7302 15.1602 23.7302 16.6362C23.7302 21.6479 19.6685 25.7252 14.6759 25.7252Z" fill="white"/>
</g>
<defs>
<filter id="filter0_i_454_944" x="0" y="0" width="25" height="31" filterUnits="userSpaceOnUse" color-interpolation-filters="sRGB">
<feFlood flood-opacity="0" result="BackgroundImageFix"/>
<feBlend mode="normal" in="SourceGraphic" in2="BackgroundImageFix" result="shape"/>
<feColorMatrix in="SourceAlpha" type="matrix" values="0 0 0 0 0 0 0 0 0 0 0 0 0 0 0 0 0 0 127 0" result="hardAlpha"/>
<feOffset dy="4"/>
<feGaussianBlur stdDeviation="2"/>
<feComposite in2="hardAlpha" operator="arithmetic" k2="-1" k3="1"/>
<feColorMatrix type="matrix" values="0 0 0 0 0.237495 0 0 0 0 0.0886458 0 0 0 0 0.4625 0 0 0 0.42 0"/>
<feBlend mode="normal" in2="shape" result="effect1_innerShadow_454_944"/>
</filter>
</defs>
</svg>
