<svg width="26" height="41" viewBox="0 0 26 41" fill="none" xmlns="http://www.w3.org/2000/svg">
<path fill-rule="evenodd" clip-rule="evenodd" d="M13.0285 3.12959C10.3504 3.12959 7.78205 4.19343 5.88839 6.0871C3.99473 7.98076 2.93089 10.5491 2.93089 13.2272C2.93089 15.9052 3.99473 18.4735 5.88839 20.3672C7.78205 22.2609 10.3504 23.3247 13.0285 23.3247C15.7065 23.3247 18.2748 22.2609 20.1685 20.3672C22.0622 18.4735 23.126 15.9052 23.126 13.2272C23.126 10.5491 22.0622 7.98076 20.1685 6.0871C18.2748 4.19343 15.7065 3.12959 13.0285 3.12959ZM0.406494 13.2272C0.406525 10.7846 1.11527 8.3945 2.44678 6.34676C3.77828 4.29902 5.67534 2.68162 7.90787 1.6907C10.1404 0.699776 12.6125 0.377917 15.0243 0.764156C17.4362 1.15039 19.6841 2.22814 21.4956 3.86667C23.307 5.50521 24.6041 7.63414 25.2296 9.99527C25.855 12.3564 25.782 14.8483 25.0192 17.1687C24.2565 19.4891 22.8369 21.5384 20.9326 23.068C19.0282 24.5976 16.721 25.5417 14.2906 25.786V30.8979H19.3394C19.6742 30.8979 19.9952 31.0309 20.2319 31.2676C20.4686 31.5043 20.6016 31.8253 20.6016 32.1601C20.6016 32.4948 20.4686 32.8159 20.2319 33.0526C19.9952 33.2893 19.6742 33.4223 19.3394 33.4223H14.2906V39.7333C14.2906 40.068 14.1577 40.3891 13.921 40.6258C13.6843 40.8625 13.3632 40.9955 13.0285 40.9955C12.6937 40.9955 12.3727 40.8625 12.1359 40.6258C11.8992 40.3891 11.7663 40.068 11.7663 39.7333V33.4223H6.71747C6.38272 33.4223 6.06167 33.2893 5.82497 33.0526C5.58826 32.8159 5.45528 32.4948 5.45528 32.1601C5.45528 31.8253 5.58826 31.5043 5.82497 31.2676C6.06167 31.0309 6.38272 30.8979 6.71747 30.8979H11.7663V25.786C8.65288 25.4731 5.76672 24.0149 3.6677 21.6943C1.56868 19.3737 0.406455 16.3562 0.406494 13.2272Z" fill="url(#paint0_linear_327_1296)"/>
<defs>
<linearGradient id="paint0_linear_327_1296" x1="12.7008" y1="1.75593" x2="10.3218" y2="40.2663" gradientUnits="userSpaceOnUse">
<stop stop-color="#3101ED"/>
<stop offset="1" stop-color="#7B2DB8"/>
</linearGradient>
</defs>
</svg>
