<svg width="24" height="30" viewBox="0 0 24 30" fill="none" xmlns="http://www.w3.org/2000/svg">
<g opacity="0.8" filter="url(#filter0_i_454_981)">
<path fill-rule="evenodd" clip-rule="evenodd" d="M17.8182 5.12198H19.8117C22.1239 5.12438 23.9977 7.00965 24 9.33586V25.7861C23.9976 28.1124 22.1238 29.9976 19.8116 30H4.18835C1.87616 29.9976 0.00238637 28.1124 0 25.7861V9.33586C0.00238637 7.00958 1.87616 5.12438 4.18835 5.12198H6.18179V3.02783C6.18179 1.27317 7.36073 0 8.98543 0H14.7542C16.4437 0 17.8182 1.3581 17.8182 3.02783V5.12198ZM8.9855 1.46346C8.05311 1.46346 7.63639 2.24932 7.63639 3.02783V5.12198H16.3637V3.02783C16.3637 2.16515 15.6415 1.46346 14.7542 1.46346H8.9855ZM19.8117 28.5366C21.3217 28.535 22.5451 27.3032 22.5455 25.7839H22.5455V9.33586C22.5439 7.81745 21.3209 6.58702 19.8116 6.58537H4.18835C2.67914 6.58702 1.45616 7.81745 1.45453 9.33586V25.7861C1.45616 27.3045 2.67914 28.535 4.18835 28.5366H19.8117ZM18.2046 9.60367H5.72729C5.12479 9.60367 4.63638 10.0951 4.63638 10.7012V24.4208C4.63638 25.0269 5.12479 25.5183 5.72729 25.5183H18.2046C18.8071 25.5183 19.2955 25.0269 19.2955 24.4208V10.7012C19.2955 10.0951 18.8071 9.60367 18.2046 9.60367ZM5.72729 8.16312C4.33402 8.16312 3.20455 9.29947 3.20455 10.7012V24.4208C3.20455 25.8225 4.33402 26.9589 5.72729 26.9589H18.2046C19.5979 26.9589 20.7273 25.8225 20.7273 24.4208V10.7012C20.7273 9.29947 19.5979 8.16312 18.2046 8.16312H5.72729ZM11.9659 13.1707L9.42672 17.5943C8.29776 19.5611 9.70852 22.0198 11.9659 22.0198C14.2234 22.0198 15.6341 19.5611 14.5052 17.5943L11.9659 13.1707ZM11.9659 16.0512L10.6666 18.3147C10.0889 19.3211 10.8108 20.5793 11.9659 20.5793C13.1211 20.5793 13.8429 19.3211 13.2653 18.3147L11.9659 16.0512Z" fill="white"/>
</g>
<defs>
<filter id="filter0_i_454_981" x="0" y="0" width="24" height="34" filterUnits="userSpaceOnUse" color-interpolation-filters="sRGB">
<feFlood flood-opacity="0" result="BackgroundImageFix"/>
<feBlend mode="normal" in="SourceGraphic" in2="BackgroundImageFix" result="shape"/>
<feColorMatrix in="SourceAlpha" type="matrix" values="0 0 0 0 0 0 0 0 0 0 0 0 0 0 0 0 0 0 127 0" result="hardAlpha"/>
<feOffset dy="4"/>
<feGaussianBlur stdDeviation="2"/>
<feComposite in2="hardAlpha" operator="arithmetic" k2="-1" k3="1"/>
<feColorMatrix type="matrix" values="0 0 0 0 0.237495 0 0 0 0 0.0886458 0 0 0 0 0.4625 0 0 0 0.42 0"/>
<feBlend mode="normal" in2="shape" result="effect1_innerShadow_454_981"/>
</filter>
</defs>
</svg>
