<svg width="50" height="18" viewBox="0 0 50 18" fill="none" xmlns="http://www.w3.org/2000/svg">
<path d="M12.28 1.98092V13.1489H10.04V5.88492L7.048 13.1489H5.352L2.344 5.88492V13.1489H0.104004V1.98092H2.648L6.2 10.2849L9.752 1.98092H12.28Z" fill="#EFEAFE"/>
<path d="M22.9746 4.28492L17.4866 17.3409H15.1026L17.0226 12.9249L13.4706 4.28492H15.9826L18.2706 10.4769L20.5906 4.28492H22.9746Z" fill="#EFEAFE"/>
<path d="M30.4861 13.1489L26.4221 8.17292V13.1489H24.1821V1.98092H26.4221V6.98892L30.4861 1.98092H33.1901L28.5821 7.51692L33.3181 13.1489H30.4861Z" fill="#EFEAFE"/>
<path d="M35.9275 3.22892C35.5328 3.22892 35.2022 3.10625 34.9355 2.86092C34.6795 2.60492 34.5515 2.29025 34.5515 1.91692C34.5515 1.54359 34.6795 1.23425 34.9355 0.988919C35.2022 0.732919 35.5328 0.604919 35.9275 0.604919C36.3222 0.604919 36.6475 0.732919 36.9035 0.988919C37.1702 1.23425 37.3035 1.54359 37.3035 1.91692C37.3035 2.29025 37.1702 2.60492 36.9035 2.86092C36.6475 3.10625 36.3222 3.22892 35.9275 3.22892ZM37.0315 4.28492V13.1489H34.7915V4.28492H37.0315Z" fill="#EFEAFE"/>
<path d="M43.1486 1.98092C44.322 1.98092 45.3513 2.21025 46.2366 2.66892C47.1326 3.12759 47.8206 3.78359 48.3006 4.63692C48.7913 5.47959 49.0366 6.46092 49.0366 7.58092C49.0366 8.70092 48.7913 9.68225 48.3006 10.5249C47.8206 11.3569 47.1326 12.0023 46.2366 12.4609C45.3513 12.9196 44.322 13.1489 43.1486 13.1489H39.2446V1.98092H43.1486ZM43.0686 11.2449C44.242 11.2449 45.1486 10.9249 45.7886 10.2849C46.4286 9.64492 46.7486 8.74359 46.7486 7.58092C46.7486 6.41825 46.4286 5.51159 45.7886 4.86092C45.1486 4.19959 44.242 3.86892 43.0686 3.86892H41.4846V11.2449H43.0686Z" fill="#EFEAFE"/>
</svg>
