<svg width="64" height="64" viewBox="0 0 64 64" fill="none" xmlns="http://www.w3.org/2000/svg">
<rect width="64" height="64" rx="32" fill="#F78318"/>
<path d="M33.3334 20.1066V29.3333H44C44.0005 26.7673 43.076 24.2871 41.3961 22.3475C39.7161 20.4079 37.3932 19.139 34.8534 18.7733C34.0534 18.6533 33.3334 19.2933 33.3334 20.1066ZM41.76 37.1866C43.2123 35.3236 44.0007 33.0289 44 30.6666H24.5867L23.68 28.76C23.5733 28.5321 23.4036 28.3395 23.191 28.2048C22.9784 28.0701 22.7317 27.9991 22.48 28H20C19.2667 28 18.6667 28.6 18.6667 29.3333C18.6667 30.0666 19.2667 30.6666 20 30.6666H21.6267C21.6267 30.6666 24.1467 36.0933 24.4534 36.56C23.5371 37.0525 22.8115 37.8367 22.3912 38.7882C21.971 39.7398 21.8802 40.8043 22.1334 41.8133C22.5334 43.4933 23.92 44.84 25.6 45.2133C28.4 45.8266 30.9067 43.9333 31.2667 41.3333H34.04C34.1313 41.9691 34.3529 42.5791 34.6908 43.1253C35.0287 43.6715 35.4758 44.1421 36.0039 44.5075C36.5321 44.873 37.13 45.1255 37.7603 45.2492C38.3905 45.373 39.0395 45.3653 39.6667 45.2266C40.5056 45.0427 41.2772 44.6302 41.8961 44.0348C42.515 43.4395 42.9571 42.6844 43.1734 41.8533C43.64 40 42.9867 38.28 41.76 37.1866ZM26.6667 42.6666C25.56 42.6666 24.6667 41.7733 24.6667 40.6666C24.6667 39.56 25.56 38.6666 26.6667 38.6666C27.7734 38.6666 28.6667 39.56 28.6667 40.6666C28.6667 41.7733 27.7734 42.6666 26.6667 42.6666ZM38.6667 42.6666C37.56 42.6666 36.6667 41.7733 36.6667 40.6666C36.6667 39.56 37.56 38.6666 38.6667 38.6666C39.7734 38.6666 40.6667 39.56 40.6667 40.6666C40.6667 41.7733 39.7734 42.6666 38.6667 42.6666Z" fill="#EFEAFE"/>
</svg>
