<svg width="33" height="33" viewBox="0 0 33 33" fill="none" xmlns="http://www.w3.org/2000/svg">
<g opacity="0.8" filter="url(#filter0_i_454_947)">
<path fill-rule="evenodd" clip-rule="evenodd" d="M27.9116 26.3394C30.1333 23.7569 31.4762 20.3966 31.4762 16.7227C31.4762 8.57456 24.8708 1.96921 16.7227 1.96921C13.0488 1.96921 9.68854 3.31209 7.106 5.53379L17.0321 15.4599H24.8268C25.2093 15.4599 25.5194 15.77 25.5194 16.1526V19.8396C25.5194 20.2222 25.2093 20.5323 24.8268 20.5323H22.1045L27.9116 26.3394ZM26.9098 27.3946C24.2615 29.9233 20.6734 31.4762 16.7227 31.4762C8.57459 31.4762 1.96924 24.8708 1.96924 16.7227C1.96924 12.772 3.52211 9.18391 6.05079 6.53564L14.9751 15.4599H6.54075C6.15821 15.4599 5.8481 15.77 5.8481 16.1526V19.8396C5.8481 20.2222 6.15821 20.5323 6.54075 20.5323H20.0474L26.9098 27.3946ZM20.7192 19.147H24.1341V16.8452H18.4174L20.7192 19.147ZM16.3604 16.8452L18.6621 19.147H11.8049V16.8452H16.3604ZM16.7227 33C25.7124 33 33 25.7124 33 16.7227C33 7.73297 25.7124 0.445374 16.7227 0.445374C7.733 0.445374 0.445404 7.73297 0.445404 16.7227C0.445404 25.7124 7.733 33 16.7227 33ZM19.341 7.16409C19.7235 7.16409 20.0336 7.4742 20.0336 7.85674C20.0336 8.3332 20.1263 8.66318 20.2521 8.92722C20.3847 9.20582 20.5638 9.43568 20.7978 9.73059L20.8128 9.74949C21.0333 10.0273 21.3037 10.3679 21.5092 10.7995C21.7264 11.2556 21.8622 11.7898 21.8622 12.4655C21.8622 12.8481 21.5521 13.1582 21.1696 13.1582C20.787 13.1582 20.4769 12.8481 20.4769 12.4655C20.4769 11.9891 20.3842 11.6591 20.2585 11.3951C20.1258 11.1165 19.9467 10.8866 19.7127 10.5917L19.6977 10.5728C19.4772 10.295 19.2068 9.95442 19.0013 9.52273C18.7841 9.06665 18.6483 8.53248 18.6483 7.85674C18.6483 7.4742 18.9584 7.16409 19.341 7.16409ZM22.9982 7.16409C23.3807 7.16409 23.6908 7.4742 23.6908 7.85674C23.6908 8.3332 23.7835 8.66318 23.9093 8.92722C24.0419 9.20582 24.221 9.43568 24.455 9.73059L24.47 9.7495C24.6905 10.0273 24.9609 10.3679 25.1664 10.7995C25.3836 11.2556 25.5194 11.7898 25.5194 12.4655C25.5194 12.8481 25.2093 13.1582 24.8268 13.1582C24.4442 13.1582 24.1341 12.8481 24.1341 12.4655C24.1341 11.9891 24.0414 11.6591 23.9157 11.3951C23.783 11.1165 23.6039 10.8866 23.3699 10.5917L23.3549 10.5728L23.3549 10.5728C23.1344 10.295 22.864 9.9544 22.6585 9.52273C22.4413 9.06665 22.3055 8.53248 22.3055 7.85674C22.3055 7.4742 22.6156 7.16409 22.9982 7.16409ZM10.4196 16.8452V19.147H7.23341V16.8452H10.4196Z" fill="white"/>
</g>
<defs>
<filter id="filter0_i_454_947" x="0.445404" y="0.445374" width="32.5546" height="36.5546" filterUnits="userSpaceOnUse" color-interpolation-filters="sRGB">
<feFlood flood-opacity="0" result="BackgroundImageFix"/>
<feBlend mode="normal" in="SourceGraphic" in2="BackgroundImageFix" result="shape"/>
<feColorMatrix in="SourceAlpha" type="matrix" values="0 0 0 0 0 0 0 0 0 0 0 0 0 0 0 0 0 0 127 0" result="hardAlpha"/>
<feOffset dy="4"/>
<feGaussianBlur stdDeviation="2"/>
<feComposite in2="hardAlpha" operator="arithmetic" k2="-1" k3="1"/>
<feColorMatrix type="matrix" values="0 0 0 0 0.237495 0 0 0 0 0.0886458 0 0 0 0 0.4625 0 0 0 0.42 0"/>
<feBlend mode="normal" in2="shape" result="effect1_innerShadow_454_947"/>
</filter>
</defs>
</svg>
