<svg width="120" height="119" viewBox="0 0 120 119" fill="none" xmlns="http://www.w3.org/2000/svg">
<rect x="100.012" y="29.6575" width="10.8477" height="10.8477" rx="5.42384" transform="rotate(-135 100.012 29.6575)" fill="white"/>
<g opacity="0.5">
<rect x="95.6294" y="99.7876" width="6.19868" height="6.19868" rx="3.09934" transform="rotate(-45 95.6294 99.7876)" fill="white"/>
</g>
<g opacity="0.5">
<rect x="22.2127" y="104.171" width="6.19868" height="6.19868" rx="3.09934" transform="rotate(-135 22.2127 104.171)" fill="white"/>
</g>
<g opacity="0.5">
<rect x="17.8289" y="21.9871" width="6.19868" height="6.19868" rx="3.09934" transform="rotate(-45 17.8289 21.9871)" fill="white"/>
</g>
<g opacity="0.5">
<rect x="112.252" y="64.7615" width="7.74834" height="7.74834" rx="3.87417" transform="rotate(-90 112.252 64.7615)" fill="white"/>
</g>
<g opacity="0.5">
<rect x="3" y="63.9868" width="6.19868" height="6.19868" rx="3.09934" transform="rotate(-90 3 63.9868)" fill="white"/>
</g>
<g opacity="0.5">
<rect x="58.0132" y="112.801" width="6.19868" height="6.19868" rx="3.09934" fill="white"/>
</g>
<g opacity="0.5">
<rect x="57.2384" y="2" width="7.74834" height="7.74834" rx="3.87417" fill="white"/>
</g>
</svg>
