<svg width="17" height="42" viewBox="0 0 17 42" fill="none" xmlns="http://www.w3.org/2000/svg">
<path d="M7.56981 0.756868C7.78429 0.54239 8.03687 0.435151 8.32755 0.435151C8.61722 0.435151 8.8693 0.542391 9.08377 0.756868L15.8966 7.56968C16.1111 7.78416 16.2186 8.03649 16.2191 8.32666C16.2186 8.61684 16.1111 8.86916 15.8966 9.08364C15.6821 9.29812 15.4298 9.40561 15.1396 9.40611C14.8494 9.40561 14.5971 9.29812 14.3826 9.08364L8.32679 3.0278L2.27096 9.08364C2.05648 9.29812 1.8039 9.40536 1.51322 9.40536C1.22355 9.40536 0.971477 9.29812 0.756999 9.08364C0.542522 8.86916 0.435281 8.61709 0.435281 8.32742C0.435281 8.03674 0.542521 7.78416 0.756999 7.56968L7.56981 0.756868Z" fill="#E9E9FF"/>
<path opacity="0.6" d="M8.32681 13.0892C8.03663 13.0887 7.7843 13.1957 7.56983 13.4102L0.757012 20.223C0.542534 20.4375 0.435548 20.6898 0.436053 20.98C0.435548 21.2702 0.542534 21.5225 0.757012 21.737C0.971489 21.9514 1.22407 22.0587 1.51475 22.0587C1.80442 22.0587 2.05649 21.9514 2.27097 21.737L8.32681 15.6811L14.3826 21.737C14.5971 21.9514 14.8494 22.0589 15.1396 22.0594C15.4298 22.0589 15.6821 21.9514 15.8966 21.737C16.1111 21.5225 16.2183 21.2704 16.2183 20.9807C16.2183 20.6901 16.1111 20.4375 15.8966 20.223L9.08379 13.4102C8.86931 13.1957 8.61698 13.0887 8.32681 13.0892Z" fill="#E9E9FF"/>
<path opacity="0.2" d="M8.32681 25.7425C8.03663 25.742 7.7843 25.849 7.56983 26.0635L0.757012 32.8763C0.542534 33.0908 0.435548 33.3431 0.436053 33.6333C0.435548 33.9235 0.542534 34.1758 0.757012 34.3903C0.971489 34.6048 1.22407 34.712 1.51475 34.712C1.80442 34.712 2.05649 34.6048 2.27097 34.3903L8.32681 28.3344L14.3826 34.3903C14.5971 34.6048 14.8494 34.7122 15.1396 34.7128C15.4298 34.7122 15.6821 34.6048 15.8966 34.3903C16.1111 34.1758 16.2183 33.9237 16.2183 33.6341C16.2183 33.3434 16.1111 33.0908 15.8966 32.8763L9.08379 26.0635C8.86931 25.849 8.61698 25.742 8.32681 25.7425Z" fill="#E9E9FF"/>
</svg>
