<svg width="26" height="26" viewBox="0 0 26 26" fill="none" xmlns="http://www.w3.org/2000/svg">
<g opacity="0.8" filter="url(#filter0_i_454_964)">
<path fill-rule="evenodd" clip-rule="evenodd" d="M12.6426 2.53993C12.8043 2.41237 19.5652 -2.84694 24.034 2.33437C26.4878 5.17811 26.2798 8.12992 25.3698 11.02L22.1668 20.1955C21.23 23.3862 20.5621 24.3718 18.9209 25.7571C17.9475 26.5802 16.8489 25.1591 15.6927 23.6633C14.6909 22.3673 13.646 21.0162 12.6019 21.0194C11.54 21.0227 10.478 22.3763 9.4624 23.6714C8.29157 25.1648 7.18086 26.581 6.20179 25.7571C4.22495 24.0931 3.35799 21.7945 2.45123 18.105C2.27654 17.3949 2.01166 16.5425 1.71834 15.6025C0.491451 11.6627 -1.21645 6.18155 1.28771 3.14118C4.38095 -0.614192 8.22251 -1.21869 12.6011 2.50987L12.6418 2.53993H12.6426ZM10.4813 2.92505C8.96677 1.88506 7.67812 1.55356 6.6056 1.63806C5.28852 1.74124 3.91944 2.50174 2.54304 4.17387C1.50628 5.43161 1.40146 7.55549 1.95966 10.331C2.22535 11.6529 2.61373 12.9911 3.00455 14.2627C3.08824 14.5373 3.17437 14.8119 3.25887 15.0841C3.55543 16.0347 3.84144 16.9537 4.02913 17.7166C4.8587 21.095 5.58103 22.9101 6.88998 24.189C7.16055 23.9371 7.50181 23.5341 7.95438 22.9613L8.17375 22.6818C8.63689 22.0911 9.18533 21.3899 9.74515 20.8293C10.3399 20.2354 11.3222 19.3977 12.5971 19.3944C13.8776 19.3904 14.8575 20.241 15.4401 20.8317C15.9917 21.3915 16.5329 22.0919 16.9895 22.6834L17.2065 22.9637C17.6493 23.5325 17.9848 23.9355 18.2505 24.1865C18.7762 23.7104 19.1175 23.3131 19.4124 22.8191C19.7943 22.1813 20.1494 21.2973 20.6068 19.7381L20.632 19.6601L23.8268 10.5089C24.2444 9.17642 24.4565 7.96011 24.3468 6.81693C24.2379 5.7038 23.8162 4.56874 22.8039 3.39549C21.1268 1.45037 19.0663 1.42112 17.1211 2.02318C16.1421 2.32705 15.2637 2.7788 14.6202 3.16555C14.3781 3.31018 14.175 3.44262 14.0173 3.55068L17.1374 5.84518C17.3111 5.97275 17.427 6.16409 17.4596 6.3771C17.4922 6.59012 17.4388 6.80737 17.3113 6.98105C17.1837 7.15473 16.9924 7.27063 16.7793 7.30324C16.5663 7.33584 16.3491 7.28249 16.1754 7.15493L11.7675 3.91305C11.7059 3.87399 11.647 3.83083 11.5912 3.78387L10.6503 3.09243C10.586 3.04526 10.5291 2.98886 10.4813 2.92505ZM6.6056 24.4116L6.60804 24.41L6.60479 24.4116H6.6056Z" fill="white"/>
</g>
<defs>
<filter id="filter0_i_454_964" x="0" y="0" width="26" height="30" filterUnits="userSpaceOnUse" color-interpolation-filters="sRGB">
<feFlood flood-opacity="0" result="BackgroundImageFix"/>
<feBlend mode="normal" in="SourceGraphic" in2="BackgroundImageFix" result="shape"/>
<feColorMatrix in="SourceAlpha" type="matrix" values="0 0 0 0 0 0 0 0 0 0 0 0 0 0 0 0 0 0 127 0" result="hardAlpha"/>
<feOffset dy="4"/>
<feGaussianBlur stdDeviation="2"/>
<feComposite in2="hardAlpha" operator="arithmetic" k2="-1" k3="1"/>
<feColorMatrix type="matrix" values="0 0 0 0 0.237495 0 0 0 0 0.0886458 0 0 0 0 0.4625 0 0 0 0.42 0"/>
<feBlend mode="normal" in2="shape" result="effect1_innerShadow_454_964"/>
</filter>
</defs>
</svg>
