<svg width="23" height="23" viewBox="0 0 23 23" fill="none" xmlns="http://www.w3.org/2000/svg">
<g opacity="0.8" filter="url(#filter0_i_454_974)">
<path fill-rule="evenodd" clip-rule="evenodd" d="M21.1946 0.000376546C21.4242 -0.0043605 21.6525 0.0356362 21.8668 0.118166C22.0837 0.201686 22.2821 0.327129 22.4505 0.487326C22.6189 0.647522 22.7541 0.839335 22.8484 1.0518C22.9426 1.26428 22.9941 1.49324 22.9998 1.7256C22.9999 1.73048 23 1.73536 23 1.74024V21.2307C23 21.7 22.8136 22.15 22.4818 22.4818C22.15 22.8136 21.7 23 21.2307 23H1.76928C1.30004 23 0.85002 22.8136 0.518215 22.4818C0.186408 22.15 3.82992e-08 21.7 3.82992e-08 21.2307L9.21924e-08 1.76983C9.21924e-08 1.76976 3.82992e-08 1.7697 3.82992e-08 1.76964C-9.59454e-05 1.30803 0.180224 0.864659 0.50248 0.534146C0.824779 0.203588 1.26352 0.0121037 1.72505 0.000561993C1.73 0.000438362 1.73494 0.000376546 1.73989 0.000376546H21.1946ZM21.4404 1.22564C21.369 1.19814 21.2928 1.18498 21.2163 1.18692C21.2113 1.18705 21.2063 1.18711 21.2013 1.18711H1.74859C1.59887 1.19243 1.45686 1.25524 1.35217 1.36261C1.24605 1.47145 1.18668 1.61745 1.18673 1.76945V21.2307C1.18673 21.3852 1.24811 21.5334 1.35735 21.6426C1.4666 21.7519 1.61478 21.8133 1.76928 21.8133H21.2307C21.3852 21.8133 21.5334 21.7519 21.6426 21.6426C21.7519 21.5334 21.8133 21.3852 21.8133 21.2307V1.74883C21.8107 1.6744 21.7938 1.60115 21.7636 1.53304C21.7325 1.46309 21.688 1.39994 21.6326 1.34719C21.5771 1.29444 21.5118 1.25314 21.4404 1.22564ZM11.4353 3.44492C10.1537 3.44492 8.88457 3.69749 7.70057 4.18818C6.51658 4.67888 5.44088 5.39808 4.53497 6.30469L4.53455 6.30512C4.47381 6.36577 4.42563 6.4378 4.39276 6.51709C4.35989 6.59638 4.34297 6.68137 4.34297 6.7672C4.34297 6.85303 4.35989 6.93802 4.39276 7.01731C4.4256 7.09651 4.4737 7.16846 4.53433 7.22907C4.5344 7.22915 4.53447 7.22922 4.53455 7.22929L7.41581 10.1046C7.41718 10.106 7.41855 10.1074 7.41991 10.1088C7.42064 10.1095 7.42137 10.1103 7.42209 10.111C7.48133 10.172 7.55222 10.2206 7.63056 10.2537C7.70891 10.2869 7.79311 10.304 7.87817 10.304C7.96324 10.304 8.04744 10.2869 8.12579 10.2537C8.20413 10.2206 8.27502 10.1721 8.33425 10.111C8.33618 10.109 8.33813 10.107 8.34008 10.1051C8.74118 9.70311 9.21626 9.3827 9.73902 9.16146L8.02917 6.45502C7.85414 6.17797 7.93684 5.81149 8.21389 5.63646C8.49093 5.46143 8.85742 5.54413 9.03245 5.82117L10.9419 8.8435C11.1112 8.82369 11.2818 8.8137 11.453 8.8137C12.0313 8.8137 12.6039 8.92776 13.138 9.14935C13.6722 9.37095 14.1574 9.69572 14.5658 10.1051C14.5678 10.107 14.5697 10.109 14.5717 10.111C14.6309 10.172 14.7018 10.2206 14.7801 10.2537C14.8585 10.2869 14.9427 10.304 15.0278 10.304C15.1128 10.304 15.197 10.2869 15.2754 10.2537C15.3537 10.2206 15.4246 10.172 15.4838 10.111C15.4859 10.1089 15.488 10.1067 15.4901 10.1046L16.208 9.38675L18.3717 7.22898C18.3858 7.21492 18.4005 7.20168 18.4157 7.18928C18.4529 7.14097 18.4833 7.08758 18.5058 7.03063C18.5377 6.95011 18.5532 6.86406 18.5515 6.77748C18.5497 6.69091 18.5308 6.60555 18.4958 6.52635C18.4608 6.44716 18.4104 6.37572 18.3475 6.31619C18.3435 6.31241 18.3396 6.30858 18.3357 6.30469C17.4298 5.39808 16.3541 4.67888 15.1701 4.18818C13.9861 3.69749 12.717 3.44492 11.4353 3.44492ZM19.1336 8.14519L17.0466 10.2265L16.3321 10.9409C16.1629 11.1143 15.9609 11.2523 15.7378 11.3467C15.5131 11.4417 15.2717 11.4907 15.0278 11.4907C14.7838 11.4907 14.5424 11.4417 14.3177 11.3467C14.0946 11.2523 13.8925 11.1143 13.7233 10.9408C13.4256 10.6431 13.0722 10.4068 12.6833 10.2455C12.2933 10.0837 11.8752 10.0004 11.453 10.0004C11.2684 10.0004 11.0847 10.0163 10.9038 10.0477C10.8247 10.0836 10.7408 10.1008 10.6577 10.1005C10.5097 10.1383 10.3643 10.1867 10.2226 10.2455C9.83373 10.4068 9.48036 10.6431 9.18264 10.9408C9.01346 11.1143 8.81137 11.2522 8.58819 11.3467C8.36354 11.4417 8.1221 11.4907 7.87817 11.4907C7.63425 11.4907 7.39281 11.4417 7.16816 11.3467C6.94504 11.2523 6.74299 11.1143 6.57383 10.9409L3.69593 8.06896C3.52484 7.89809 3.38911 7.69517 3.29651 7.4718C3.20391 7.24844 3.15624 7.00901 3.15624 6.7672C3.15624 6.5254 3.20391 6.28597 3.29651 6.0626C3.38904 5.83942 3.52462 5.63665 3.6955 5.46587C3.69557 5.4658 3.69565 5.46573 3.69572 5.46566C4.71179 4.44885 5.91827 3.64222 7.24622 3.09187C8.57426 2.54148 9.99775 2.25819 11.4353 2.25819C12.8729 2.25819 14.2964 2.54148 15.6244 3.09187C16.9501 3.64129 18.1548 4.44613 19.1698 5.46051C19.3439 5.62697 19.4837 5.82604 19.5812 6.04643C19.6798 6.26953 19.7331 6.51002 19.738 6.75391C19.7428 6.9978 19.6991 7.24022 19.6094 7.46706C19.5197 7.69391 19.3858 7.90065 19.2154 8.07525C19.19 8.10131 19.1626 8.12465 19.1336 8.14519Z" fill="white"/>
</g>
<defs>
<filter id="filter0_i_454_974" x="0" y="0" width="23" height="27" filterUnits="userSpaceOnUse" color-interpolation-filters="sRGB">
<feFlood flood-opacity="0" result="BackgroundImageFix"/>
<feBlend mode="normal" in="SourceGraphic" in2="BackgroundImageFix" result="shape"/>
<feColorMatrix in="SourceAlpha" type="matrix" values="0 0 0 0 0 0 0 0 0 0 0 0 0 0 0 0 0 0 127 0" result="hardAlpha"/>
<feOffset dy="4"/>
<feGaussianBlur stdDeviation="2"/>
<feComposite in2="hardAlpha" operator="arithmetic" k2="-1" k3="1"/>
<feColorMatrix type="matrix" values="0 0 0 0 0.237495 0 0 0 0 0.0886458 0 0 0 0 0.4625 0 0 0 0.42 0"/>
<feBlend mode="normal" in2="shape" result="effect1_innerShadow_454_974"/>
</filter>
</defs>
</svg>
